<svg width="2211" height="816" viewBox="0 0 2211 816" fill="none" xmlns="http://www.w3.org/2000/svg">
<path d="M408.054 816C633.417 816 816.109 633.332 816.109 408C816.109 182.668 633.417 0 408.054 0C182.692 0 0 182.668 0 408C0 633.332 182.692 816 408.054 816Z" fill="#02FFD2"/>
<path d="M162.667 479.546C164.088 484.038 165.277 488.464 166.4 492.791C165.244 488.464 164.055 484.005 162.634 479.513C161.808 476.937 161.016 474.426 160.223 471.883C161.016 474.426 161.808 476.97 162.634 479.546H162.667Z" fill="#05202E"/>
<path d="M268.016 553.139C268.115 552.875 268.247 552.611 268.313 552.347C268.214 552.611 268.115 552.875 268.049 553.139C267.355 554.89 266.727 556.674 266.133 558.358C266.727 556.641 267.355 554.89 268.049 553.139H268.016Z" fill="#05202E"/>
<path d="M263.59 553.667C265.341 553.006 266.993 552.313 268.578 551.619C266.993 552.346 265.341 553.006 263.59 553.667Z" fill="#05202E"/>
<path d="M362.498 152.769C364.579 152.306 366.561 151.877 368.543 151.514C364.843 152.273 361.011 153.099 357.08 154.09L362.498 152.769Z" fill="#05202E"/>
<path d="M574.024 190.49C574.586 190.821 575.115 191.151 575.643 191.481L574.024 190.523C570.622 188.509 567.252 186.593 563.816 184.71C567.219 186.56 570.655 188.476 574.024 190.49Z" fill="#05202E"/>
<path d="M198.345 273.629C196 273.299 193.654 273.134 191.309 273.068C191.903 271.78 192.498 270.492 193.093 269.236C194.777 270.954 196.528 272.407 198.345 273.629Z" fill="#05202E"/>
<path d="M688.592 425.408C685.586 409.355 677.723 397.992 669.563 389.833C668.539 388.809 667.515 387.818 666.524 386.926C665.5 386.002 664.509 385.11 663.485 384.284C662.824 383.722 662.196 383.194 661.536 382.665V380.485C661.536 379.891 661.569 379.296 661.602 378.636C661.668 377.314 661.734 375.861 661.866 374.309C661.932 373.582 661.998 372.789 662.064 371.996C662.064 371.864 662.097 371.765 662.097 371.666C662.328 369.354 662.593 366.844 662.923 364.168C663.32 361.327 663.65 358.817 663.914 356.637C664.013 356.109 664.046 355.547 664.145 354.952C664.839 349.37 665.632 341.773 665.599 332.623C665.401 297.148 652.55 263.456 628.434 235.149C618.689 223.786 607.093 213.15 593.945 203.571C590.179 200.829 586.215 198.088 582.052 195.445C581.524 195.082 580.962 194.719 580.367 194.388L579.608 193.893C578.352 193.1 577.064 192.34 575.775 191.548L575.676 191.482L574.058 190.524C572.34 189.533 570.655 188.542 568.97 187.551C567.252 186.593 565.534 185.635 563.85 184.71C562.132 183.785 560.447 182.827 558.729 181.936C557.011 181.011 555.293 180.119 553.576 179.26C551.825 178.401 550.14 177.542 548.389 176.684C546.638 175.825 544.92 174.999 543.169 174.206C541.452 173.414 539.701 172.621 537.983 171.828C526.52 166.741 514.891 162.348 503.163 158.682C500.256 157.757 497.349 156.898 494.409 156.072C492.856 155.643 491.304 155.213 489.751 154.817C488.793 154.553 487.835 154.322 486.877 154.09C483.342 153.232 479.873 152.439 476.57 151.745C475.447 151.514 474.357 151.283 473.266 151.085C471.78 150.787 470.392 150.556 468.972 150.292C464.908 149.565 461.01 148.971 457.31 148.508C456.286 148.376 455.229 148.244 454.238 148.079C451.694 147.814 449.25 147.55 446.904 147.352C445.88 147.253 444.889 147.187 443.898 147.088C443.336 147.055 442.742 147.022 442.147 146.956C441.09 146.89 440.066 146.824 439.075 146.757C438.612 146.757 438.15 146.724 437.72 146.724C436.762 146.658 435.87 146.592 434.978 146.592C434.284 146.559 433.591 146.526 432.93 146.526C432.203 146.493 431.443 146.46 430.75 146.46C427.413 146.427 424.473 146.427 421.995 146.526C419.485 146.427 416.644 146.427 413.34 146.46C412.58 146.46 411.787 146.493 410.961 146.526C408.054 146.592 404.916 146.724 401.513 146.989C400.654 147.055 399.795 147.088 398.903 147.187C397.186 147.319 395.402 147.484 393.552 147.682C392.395 147.781 391.272 147.914 390.083 148.079C386.614 148.475 382.98 148.971 379.214 149.565C377.529 149.862 375.812 150.16 374.061 150.49C373.83 150.523 373.631 150.556 373.4 150.589C371.814 150.886 370.196 151.217 368.511 151.547C364.844 152.274 361.012 153.132 357.081 154.09C356.915 154.123 356.75 154.189 356.585 154.222C355.792 154.388 354.999 154.586 354.206 154.817C352.654 155.213 351.101 155.643 349.548 156.072C347.963 156.535 346.443 156.964 344.857 157.427C343.734 157.757 342.611 158.087 341.455 158.45C340.232 158.847 338.977 159.21 337.788 159.64C336.599 160.003 335.442 160.366 334.253 160.796C333.13 161.159 332.007 161.522 330.85 161.952C329.562 162.381 328.274 162.844 326.952 163.339C325.201 164 323.417 164.66 321.699 165.321C320.114 165.915 318.561 166.51 316.975 167.171C316.777 167.237 316.579 167.336 316.414 167.402C312.912 168.822 309.41 170.309 305.942 171.828C302.539 173.347 299.136 174.933 295.8 176.552C295.601 176.618 295.403 176.75 295.205 176.816L290.349 179.293C288.664 180.119 287.012 180.945 285.36 181.836C285.195 181.936 285.03 182.002 284.865 182.101C283.279 182.927 281.66 183.818 280.042 184.71C278.324 185.635 276.639 186.593 274.954 187.551C273.236 188.542 271.552 189.533 269.867 190.524L268.215 191.515C267.918 191.68 267.653 191.845 267.356 192.043C266.993 192.241 266.629 192.472 266.266 192.704C264.779 193.596 263.293 194.52 261.839 195.445C229.233 168.029 187.179 170.507 173.667 172.158C145.257 175.627 123.321 200.07 123.321 228.972V229.732C123.321 231.053 123.387 232.374 123.42 233.662C120.018 235.38 117.375 236.833 115.723 237.725C101.914 245.653 91.9376 258.964 88.3037 274.522C84.4716 290.773 87.8742 307.817 97.7849 321.459C119.588 351.484 148.924 368.825 181.794 371.666C182.058 374.077 182.191 376.324 182.29 378.305C182.323 378.966 182.356 379.561 182.356 380.155C182.389 380.783 182.422 381.41 182.389 381.972C182.389 382.203 182.389 382.434 182.389 382.665C181.728 383.194 181.1 383.722 180.44 384.284C179.151 385.308 177.896 386.431 176.608 387.62C175.848 388.314 175.088 389.074 174.328 389.8C173.304 390.857 172.28 391.947 171.256 393.103C164.252 400.965 157.909 411.403 155.3 425.408C152.855 438.389 154.375 450.148 157.348 461.742C157.777 463.46 158.24 465.111 158.702 466.796C159.198 468.513 159.693 470.198 160.222 471.882C161.015 474.426 161.841 476.969 162.667 479.546C162.799 480.041 162.964 480.537 163.096 480.999C163.129 481.164 163.195 481.329 163.228 481.495C163.724 483.08 164.186 484.632 164.616 486.218C165.243 488.431 165.838 490.611 166.4 492.791C171.157 510.628 179.151 540.521 210.601 553.733C225.665 560.042 240.036 559.745 251.962 557.103C253.349 556.805 254.704 556.442 256.025 556.079C257.379 555.748 258.668 555.352 259.923 554.923C261.178 554.526 262.401 554.097 263.557 553.667H263.59C265.341 553.007 266.993 552.313 268.578 551.62C268.479 551.884 268.413 552.115 268.314 552.346C268.314 552.478 268.215 552.61 268.182 552.743C268.149 552.875 268.083 553.007 268.05 553.139C267.356 554.923 266.728 556.673 266.101 558.391C265.242 560.967 264.482 563.478 263.788 565.955C263.392 567.607 262.962 569.225 262.599 570.844C262.269 572.462 261.971 574.015 261.707 575.567C256.487 606.616 267.918 628.053 276.342 639.053C291.67 659.07 313.738 667.658 325.532 672.249C346.443 680.474 372.838 685.428 403.991 687.047C409.277 687.344 413.67 687.476 417.304 687.542C418.824 687.542 420.178 687.576 421.434 687.576H422.491C423.713 687.576 425.101 687.542 426.62 687.542C430.287 687.476 434.615 687.344 440.099 687.047C471.119 685.428 497.448 680.474 518.36 672.282C530.22 667.658 552.254 659.07 567.583 639.053C577.89 625.576 592.756 596.41 575.875 553.172C575.676 552.61 575.511 552.082 575.346 551.653C588.99 557.598 610.298 563.379 633.323 553.733C664.74 540.521 672.735 510.628 677.492 492.791C678.648 488.464 679.837 484.005 681.291 479.546C681.819 477.828 682.348 476.11 682.91 474.426C683.702 471.882 684.462 469.339 685.189 466.796C685.652 465.111 686.114 463.46 686.577 461.742C686.973 460.057 687.402 458.373 687.766 456.655C689.88 446.68 690.706 436.506 688.592 425.408ZM234.882 329.948C234.915 328.858 234.981 327.735 235.08 326.579C235.411 322.087 236.071 317.198 237.327 312.012C237.657 310.625 238.054 309.237 238.45 307.817C238.913 306.298 239.408 304.778 239.937 303.226C240.465 301.838 240.994 300.385 241.588 298.965C241.952 298.106 242.315 297.247 242.712 296.388C242.976 295.761 243.273 295.1 243.604 294.439C243.67 294.307 243.736 294.175 243.802 294.043C244.727 292.127 245.718 290.211 246.841 288.263C247.733 286.677 248.658 285.125 249.682 283.539C250.541 282.218 251.466 280.897 252.391 279.542C252.953 278.783 253.547 277.99 254.109 277.197C256.124 274.555 258.304 271.879 260.716 269.204C261.344 268.543 261.938 267.882 262.599 267.189C264.911 264.711 267.455 262.234 270.197 259.757C271.453 258.634 272.708 257.511 274.062 256.388C275.813 254.901 277.663 253.415 279.612 251.928C280.438 251.301 281.264 250.673 282.123 250.013C287.111 246.346 292.595 242.68 298.674 239.079C324.474 223.786 348.194 214.802 368.015 209.55C368.973 209.318 369.898 209.087 370.79 208.856C372.145 208.526 373.499 208.228 374.821 207.898C399.102 202.481 416.181 202.745 421.962 203.042C428.14 202.712 447.267 202.448 474.224 209.153C474.522 209.186 474.786 209.285 475.083 209.351C477.231 209.913 479.411 210.507 481.624 211.168C489.222 213.381 497.349 216.123 505.872 219.558C518.228 224.513 531.442 230.888 545.251 239.079C550.834 242.382 555.954 245.752 560.612 249.154C570.886 256.619 579.013 264.249 585.455 271.813C554.798 291.434 392.462 321.657 322.79 333.912C322.757 333.945 322.724 333.945 322.691 333.945C314.134 335.464 306.999 336.686 301.68 337.644C300.953 337.776 300.226 337.875 299.533 338.007C298.773 338.14 298.046 338.239 297.319 338.371C296.989 338.404 296.659 338.47 296.328 338.536C295.734 338.635 295.172 338.734 294.61 338.833C294.115 338.899 293.652 338.998 293.19 339.064L292.595 339.164C292.199 339.23 291.802 339.296 291.406 339.362C286.451 340.188 281.727 340.98 277.234 341.707C274.756 342.103 272.378 342.467 270.065 342.863C267.323 343.292 264.68 343.722 262.136 344.118C261.278 344.25 260.452 344.382 259.626 344.515C259.229 344.581 258.8 344.647 258.403 344.713C257.214 344.911 256.025 345.109 254.869 345.274C254.439 345.307 254.043 345.406 253.613 345.439C250.277 345.968 247.204 346.43 244.429 346.86C243.174 347.058 241.985 347.256 240.862 347.421C240.3 347.487 239.738 347.586 239.21 347.653C238.153 347.818 237.162 347.95 236.204 348.082C236.071 348.115 235.972 348.115 235.84 348.148V347.95C235.345 343.986 234.717 338.437 234.849 331.732C234.849 331.137 234.882 330.542 234.882 329.948Z" fill="#05202E"/>
<path d="M182.355 380.188C182.422 381.08 182.422 381.906 182.422 382.699C182.422 381.939 182.422 381.08 182.422 380.188H182.355Z" fill="#05202E"/>
<path d="M269.899 190.457C273.269 188.476 276.606 186.56 280.041 184.71C276.639 186.593 273.236 188.509 269.833 190.523L268.182 191.514C267.521 191.911 266.893 192.274 266.232 192.703C267.455 191.944 268.644 191.217 269.899 190.457Z" fill="#05202E"/>
<path d="M305.941 171.861C309.443 170.275 312.912 168.822 316.414 167.435C312.912 168.855 309.41 170.341 305.941 171.861Z" fill="#05202E"/>
<path d="M481.392 152.77L486.843 154.091C482.119 152.935 477.593 151.944 473.232 151.085C475.875 151.58 478.617 152.142 481.392 152.77Z" fill="#05202E"/>
<path d="M490.347 154.95C491.701 155.313 493.089 155.709 494.41 156.073C492.857 155.643 491.305 155.214 489.752 154.817C489.95 154.817 490.148 154.916 490.347 154.95Z" fill="#05202E"/>
<path d="M666.49 386.927C665.466 386.002 664.475 385.143 663.451 384.284C664.442 385.11 665.466 385.969 666.49 386.927Z" fill="#05202E"/>
<path d="M246.84 288.263C245.717 290.212 244.726 292.127 243.801 294.043C244.693 292.127 245.717 290.178 246.84 288.263Z" fill="#FEFEFE"/>
<path d="M322.69 333.945C322.69 333.945 322.492 334.044 322.393 334.077C319.849 334.507 317.339 334.969 314.894 335.366C312.548 335.795 310.236 336.191 307.956 336.588C305.809 336.951 303.728 337.314 301.68 337.645C306.998 336.687 314.134 335.465 322.69 333.945Z" fill="#FEFEFE"/>
<path d="M627.442 462.37C617.366 494.047 619.712 512.577 591.136 496.359C562.561 480.14 499.496 512.61 523.248 573.618C534.811 603.313 518.722 611.505 497.811 619.664C478.65 627.162 454.006 629.771 437.125 630.663C432.665 630.894 428.767 631.026 425.661 631.06C424.472 631.06 423.415 631.126 422.457 631.126H421.367C420.442 631.126 419.352 631.126 418.162 631.06C415.057 631.06 411.159 630.894 406.699 630.663C389.851 629.771 365.173 627.162 346.013 619.664C325.101 611.505 309.013 603.313 320.576 573.618C344.328 512.61 281.263 480.107 252.688 496.359C224.079 512.577 226.457 494.047 216.382 462.37C206.273 430.693 208.552 433.434 228.539 418.901C234.122 414.838 234.122 411.37 236.104 404.334C242.48 403.508 249.813 402.418 257.94 400.998C258.865 442.947 293.09 455.631 325.101 454.839C377.132 453.484 407.062 417.348 404.684 382.897C407.129 382.468 409.573 382.104 411.985 381.675C504.484 366.216 577.393 343.59 608.942 332.921C608.942 339.098 608.381 344.218 607.918 347.95C607.852 348.412 607.819 348.875 607.753 349.304C607.489 351.451 607.158 353.995 606.762 356.868C605.342 367.901 603.756 383.525 606.002 397.199C606.399 399.578 606.894 401.89 607.522 404.103C609.57 411.337 609.504 414.805 615.153 418.934C635.14 433.468 637.419 430.726 627.31 462.403L627.442 462.37Z" fill="#FEFEFE"/>
<path d="M585.454 271.813C554.797 291.434 392.46 321.657 322.788 333.912C322.755 333.945 322.722 333.945 322.689 333.945C314.133 335.464 306.997 336.686 301.679 337.644C300.952 337.776 300.225 337.876 299.531 338.008C298.772 338.14 298.045 338.239 297.318 338.371C296.988 338.404 296.657 338.47 296.327 338.536C295.732 338.635 295.171 338.734 294.609 338.833C294.114 338.9 293.651 338.999 293.189 339.065L292.594 339.164C292.198 339.23 291.801 339.296 291.405 339.362C286.449 340.188 281.725 340.98 277.233 341.707C274.755 342.104 272.376 342.467 270.064 342.863C267.322 343.293 264.679 343.722 262.135 344.118C261.276 344.251 260.45 344.383 259.625 344.515C259.228 344.581 258.799 344.647 258.402 344.713C257.213 344.911 256.024 345.109 254.867 345.275C254.438 345.308 254.042 345.407 253.612 345.44C250.276 345.968 247.203 346.431 244.428 346.86C243.173 347.058 241.984 347.256 240.86 347.422C240.299 347.488 239.737 347.587 239.209 347.653C238.152 347.818 237.16 347.95 236.202 348.082C236.07 348.115 235.971 348.115 235.839 348.148V347.95C235.343 343.986 234.716 338.437 234.848 331.732C234.848 331.137 234.881 330.543 234.881 329.948C234.914 328.858 234.98 327.735 235.079 326.579C235.41 322.087 236.07 317.198 237.326 312.012C237.656 310.625 238.052 309.238 238.449 307.817C238.911 306.298 239.407 304.778 239.935 303.226C240.464 301.839 240.993 300.385 241.587 298.965C241.951 298.106 242.314 297.247 242.71 296.389C242.975 295.761 243.272 295.1 243.602 294.44C243.668 294.308 243.735 294.175 243.801 294.043C244.726 292.127 245.717 290.212 246.84 288.263C247.732 286.677 248.657 285.125 249.681 283.539C250.54 282.218 251.465 280.897 252.39 279.543C252.951 278.783 253.546 277.99 254.108 277.197C256.123 274.555 258.303 271.879 260.715 269.204C261.342 268.543 261.937 267.883 262.598 267.189C264.91 264.712 267.454 262.234 270.196 259.757C271.451 258.634 272.707 257.511 274.061 256.388C275.812 254.901 277.662 253.415 279.611 251.929C280.437 251.301 281.263 250.673 282.122 250.013C287.11 246.346 292.594 242.68 298.673 239.08C324.473 223.786 348.193 214.802 368.014 209.55C368.972 209.319 369.897 209.087 370.789 208.856C372.143 208.526 373.498 208.229 374.819 207.898C399.1 202.481 416.18 202.745 421.961 203.043C428.139 202.712 447.266 202.448 474.223 209.153C474.521 209.186 474.785 209.286 475.082 209.352C477.229 209.913 479.41 210.508 481.623 211.168C489.221 213.381 497.348 216.123 505.871 219.558C518.226 224.513 531.441 230.888 545.25 239.08C550.833 242.383 555.953 245.752 560.611 249.154C570.885 256.619 579.012 264.249 585.454 271.813Z" fill="#02FFD2"/>
<path d="M322.69 333.945C322.69 333.945 322.492 334.044 322.393 334.077C319.849 334.507 317.339 334.969 314.894 335.366C312.548 335.795 310.236 336.191 307.956 336.588C305.809 336.951 303.728 337.314 301.68 337.645C306.998 336.687 314.134 335.465 322.69 333.945Z" fill="#02FFD2"/>
<path d="M609.108 332.921C577.526 343.623 504.617 366.216 412.15 381.675H412.117C409.673 382.104 407.261 382.468 404.816 382.897C407.162 417.315 377.265 453.484 325.201 454.806C293.189 455.632 258.932 442.948 258.04 400.998C249.88 402.385 242.546 403.508 236.17 404.334C236.17 404.235 236.203 404.169 236.236 404.07C236.831 402.022 237.293 399.875 237.657 397.695L237.756 397.199C240.002 383.591 238.417 368.066 236.996 357.034V356.869C236.6 353.995 236.269 351.451 236.005 349.304C235.939 348.941 235.906 348.578 235.84 348.148C235.972 348.148 236.071 348.148 236.203 348.082C237.161 347.95 238.152 347.818 239.209 347.653C239.738 347.587 240.3 347.488 240.861 347.422C241.984 347.256 243.174 347.058 244.429 346.86C247.204 346.431 250.276 345.968 253.613 345.44C254.042 345.407 254.439 345.308 254.868 345.275C256.025 345.109 257.214 344.911 258.403 344.713C258.8 344.647 259.229 344.581 259.625 344.515C260.451 344.383 261.277 344.251 262.136 344.119C264.68 343.722 267.323 343.293 270.065 342.863C272.377 342.467 274.756 342.104 277.233 341.707C281.726 340.981 286.45 340.188 291.406 339.362C291.802 339.296 292.198 339.23 292.595 339.164L293.189 339.065C293.652 338.999 294.114 338.9 294.61 338.834C295.172 338.734 295.733 338.635 296.328 338.536C296.658 338.47 296.989 338.404 297.319 338.371C298.046 338.239 298.772 338.14 299.532 338.008C300.226 337.876 300.953 337.777 301.68 337.644C303.728 337.314 305.809 336.951 307.956 336.587C310.236 336.191 312.548 335.795 314.894 335.365C317.338 334.969 319.849 334.506 322.393 334.077C322.492 334.044 322.591 334.011 322.69 333.945C322.723 333.945 322.756 333.945 322.789 333.912C392.461 321.657 554.798 291.434 585.455 271.813C605.045 294.803 609.009 317.231 609.108 332.921Z" fill="#05202E"/>
<path d="M476.999 434.458C472.01 437.927 465.833 431.287 466.526 424.879C468.707 404.73 483.936 376.786 505.211 370.741C521.035 366.249 567.318 370.444 579.937 413.781C581.622 419.561 574.519 428.282 569.828 425.309C565.137 422.336 556.251 415.465 548.884 412.195C538.279 407.439 525.329 407.208 512.941 411.271C494.309 417.381 489.023 426.134 476.966 434.491L476.999 434.458Z" fill="#05202E"/>
<path d="M448.687 498.604C440.395 496.854 431.971 495.632 425.793 494.575C424.472 494.608 423.217 494.674 421.961 494.74C420.706 494.641 419.45 494.608 418.129 494.575C411.951 495.632 403.527 496.887 395.235 498.604C383.475 501.082 379.709 497.547 383.211 485.92C387.902 470.396 398.01 458.703 411.324 449.95C414.66 447.77 418.294 446.68 421.961 446.646C425.595 446.646 429.262 447.77 432.599 449.95C445.912 458.703 456.021 470.396 460.712 485.92C464.214 497.514 460.481 501.082 448.687 498.604Z" fill="#05202E"/>
<path d="M187.542 273.135C188.797 273.069 190.053 273.036 191.308 273.069C185.395 286.215 181.43 299.989 179.613 314.192C167.754 311.451 154.969 304.118 143.44 288.23C143.109 287.734 143.241 287.041 143.737 286.777C146.148 285.389 152.69 281.888 161.411 278.717C168.976 275.975 178.127 273.564 187.542 273.102V273.135Z" fill="#02FFD2"/>
<path d="M217.108 233.332C216.546 233.926 216.018 234.554 215.489 235.181C206.437 245.85 198.938 257.246 193.124 269.269C185.79 261.804 180.108 249.418 179.844 229.005C179.844 228.641 180.108 228.311 180.504 228.245C184.171 227.782 202.011 226.098 217.108 233.332Z" fill="#02FFD2"/>
<path d="M958.822 411.965C958.822 402.782 959.813 394.689 961.762 387.687C963.745 380.684 966.024 373.582 968.667 366.349C971.277 359.115 973.589 351.485 975.571 343.392C977.553 335.299 978.511 325.588 978.511 314.192V250.542C978.511 239.608 977.52 229.996 975.571 221.672C973.589 213.382 971.31 205.586 968.667 198.385C966.057 191.152 963.745 184.05 961.762 177.047C959.78 170.045 958.822 161.952 958.822 152.77C958.822 138.335 964.273 128.161 975.241 122.249C986.176 116.336 1002.16 113.396 1023.14 113.396C1044.12 113.396 1060.01 116.336 1070.71 122.249C1081.42 128.161 1086.8 138.335 1086.8 152.77C1086.8 161.952 1085.81 170.045 1083.86 177.047C1081.88 184.05 1079.6 191.152 1076.96 198.385C1074.35 205.619 1072.03 213.382 1070.05 221.672C1068.07 229.996 1067.11 239.608 1067.11 250.542V314.192C1067.11 325.588 1068.1 335.299 1070.05 343.392C1072.03 351.485 1074.31 359.148 1076.96 366.349C1079.57 373.582 1081.88 380.684 1083.86 387.687C1085.84 394.689 1086.8 402.782 1086.8 411.965C1086.8 426.399 1081.45 436.474 1070.71 442.155C1059.98 447.836 1044.12 450.677 1023.14 450.677C1002.16 450.677 986.176 447.836 975.241 442.155C964.306 436.474 958.822 426.399 958.822 411.965Z" fill="white"/>
<path d="M1111.61 296.488C1108.9 292.128 1105.9 288.296 1102.53 284.993C1099.16 281.723 1096.12 278.42 1093.44 275.15C1090.73 271.879 1089.41 267.387 1089.41 261.706C1089.41 255.595 1092.35 250.541 1098.27 246.611C1104.18 242.68 1110.95 239.608 1118.62 237.428C1126.28 235.248 1133.91 233.729 1141.58 232.837C1149.24 231.978 1155.02 231.515 1158.95 231.515C1174.71 231.515 1186.07 235.248 1193.08 242.68C1200.08 250.112 1203.58 259.096 1203.58 269.567V364.697C1203.58 378.702 1205.43 391.056 1209.17 401.758C1212.87 412.493 1219.11 417.844 1227.86 417.844C1237.05 417.844 1245.14 413.021 1252.15 403.409C1259.15 393.797 1264.5 382.203 1268.23 368.627C1271.93 355.085 1273.49 340.848 1272.83 325.984C1272.16 311.12 1268.76 298.436 1262.65 287.933C1259.15 284.002 1255.75 280.269 1252.48 276.768C1249.2 273.267 1247.55 268.246 1247.55 261.673C1247.55 255.562 1250.49 250.508 1256.41 246.578C1262.32 242.647 1269.09 239.575 1276.76 237.395C1284.42 235.215 1292.05 233.696 1299.72 232.804C1307.38 231.945 1313.16 231.482 1317.09 231.482C1332.39 231.482 1343.55 235.215 1350.56 242.647C1357.56 250.079 1361.06 259.063 1361.06 269.534V364.664C1361.06 370.345 1362.38 374.837 1364.99 378.107C1367.6 381.378 1370.35 384.449 1373.19 387.29C1376.03 390.131 1378.77 393.104 1381.38 396.142C1383.99 399.214 1385.31 403.376 1385.31 408.595C1385.31 414.739 1383.43 420.288 1379.73 425.342C1376 430.363 1371.3 434.756 1365.62 438.455C1359.94 442.188 1353.7 445.128 1346.92 447.308C1340.15 449.488 1333.68 450.578 1327.57 450.578C1315.74 450.578 1305.27 447.638 1296.05 441.725C1286.87 435.813 1280.29 427.39 1276.36 416.457C1267.64 427.39 1257.63 435.813 1246.3 441.725C1234.97 447.638 1221.22 450.578 1205.1 450.578C1176.36 450.578 1154.23 443.146 1138.77 428.282C1123.31 413.418 1115.58 393.302 1115.58 367.901V314.093C1115.58 306.661 1114.22 300.749 1111.55 296.389L1111.61 296.488Z" fill="white"/>
<path d="M1514.02 450.677C1496.08 450.677 1479.13 447.836 1463.14 442.155C1447.15 436.474 1433.28 428.711 1421.48 418.868C1409.66 409.025 1400.38 397.431 1393.6 384.086C1386.83 370.742 1383.43 356.439 1383.43 341.113C1383.43 325.787 1386.8 312.145 1393.6 298.8C1400.38 285.456 1409.69 273.763 1421.48 263.688C1433.31 253.647 1447.19 245.752 1463.14 240.071C1479.1 234.39 1496.05 231.549 1514.02 231.549C1528.02 231.549 1541.47 233.2 1554.39 236.47C1567.27 239.741 1579.2 244.563 1590.16 250.905C1601.1 257.247 1610.51 264.811 1618.38 273.531C1626.24 282.285 1632.15 291.897 1636.08 302.401C1639.12 310.724 1638.92 318.057 1635.42 324.399C1631.92 330.741 1626.44 336.092 1619 340.485C1611.57 344.879 1603.15 348.016 1593.73 349.998C1584.32 351.98 1575.36 352.311 1566.84 350.989C1558.32 349.668 1550.85 346.959 1544.54 342.798C1538.2 338.636 1534.8 332.426 1534.37 324.102C1533.05 307.058 1530.87 292.822 1527.79 281.459C1524.72 270.096 1520.13 264.415 1514.02 264.415C1507.91 264.415 1502.62 268.676 1498.26 277.198C1493.87 285.72 1491.69 296.323 1491.69 309.007C1491.69 327.372 1496.28 342.698 1505.46 354.953C1514.64 367.208 1525.38 376.291 1537.6 382.171C1549.86 388.083 1561.79 390.594 1573.38 389.702C1584.98 388.843 1593.17 384.02 1597.99 375.267C1600.17 371.766 1603.68 369.487 1608.5 368.364C1613.32 367.274 1617.91 367.373 1622.27 368.694C1626.64 370.015 1629.94 372.526 1632.12 376.225C1634.3 379.958 1633.87 384.648 1630.8 390.329C1620.29 408.695 1604.67 423.36 1583.89 434.294C1563.11 445.227 1539.82 450.71 1513.98 450.71L1514.02 450.677Z" fill="white"/>
<path d="M1647.38 411.964C1647.38 402.749 1648.37 394.623 1650.39 387.587C1652.4 380.585 1654.71 373.417 1657.39 366.183C1660.07 358.949 1662.41 351.253 1664.39 343.127C1666.41 335.002 1667.4 325.225 1667.4 313.796V249.881C1667.4 238.914 1666.41 229.236 1664.39 220.879C1662.38 212.555 1660.07 204.727 1657.39 197.493C1654.71 190.259 1652.4 183.125 1650.39 176.089C1648.37 169.054 1647.38 160.928 1647.38 151.712C1647.38 137.212 1652.93 127.005 1664.06 121.092C1675.16 115.147 1691.42 112.207 1712.76 112.207C1734.1 112.207 1750.22 115.18 1761.12 121.092C1772.02 127.005 1777.47 137.245 1777.47 151.712C1777.47 160.928 1776.48 169.054 1774.47 176.089C1772.45 183.125 1770.14 190.259 1767.46 197.493C1764.79 204.727 1762.48 212.555 1760.46 220.879C1758.45 229.236 1757.46 238.881 1757.46 249.881V319.708C1757.46 321.459 1757.69 323.441 1758.12 325.621L1770.14 315.745C1779.03 308.709 1785.6 302.367 1789.83 296.653C1794.06 290.938 1797.26 285.554 1799.51 280.5C1801.72 275.447 1803.84 270.723 1805.85 266.33C1807.87 261.937 1811.3 257.346 1816.19 252.49C1825.08 243.274 1835.42 237.329 1847.21 234.686C1859.01 232.044 1871.33 230.723 1884.25 230.723C1892.24 230.723 1899.81 231.813 1906.94 234.026C1914.04 236.239 1919.73 239.311 1923.95 243.241C1928.18 247.205 1930.53 251.796 1930.96 257.081C1931.39 262.366 1928.71 267.85 1922.96 273.564C1917.61 278.849 1912.16 282.912 1906.61 285.752C1901.06 288.626 1895.28 290.905 1889.27 292.656C1883.25 294.407 1877.14 295.959 1870.9 297.28C1864.66 298.601 1857.98 300.583 1850.88 303.193L1858.21 313.73C1864.42 322.945 1871.56 330.41 1879.55 336.125C1887.55 341.839 1895.77 347.091 1904.23 351.947C1912.69 356.769 1920.68 361.823 1928.25 367.108C1935.81 372.393 1942.26 379.197 1947.61 387.521C1952.03 394.986 1952.96 402.451 1950.28 409.916C1947.61 417.381 1942.72 424.186 1935.62 430.329C1928.51 436.473 1919.69 441.428 1909.25 445.16C1898.81 448.893 1888.24 450.743 1877.57 450.743C1866.9 450.743 1857.78 450.214 1850.22 449.091C1842.65 448.001 1835.98 446.118 1830.2 443.509C1824.42 440.866 1819.07 437.266 1814.18 432.642C1809.29 428.017 1804.4 422.204 1799.51 415.168C1792.41 405.061 1787.72 395.316 1785.5 385.837C1783.26 376.39 1779.72 365.985 1774.83 354.556L1766.14 361.79C1768.82 369.684 1771.36 377.513 1773.81 385.176C1776.25 392.872 1777.47 401.758 1777.47 411.865C1777.47 426.366 1772.02 436.473 1761.12 442.155C1750.22 447.869 1734.1 450.71 1712.76 450.71C1691.42 450.71 1675.16 447.869 1664.06 442.155C1652.93 436.44 1647.38 426.333 1647.38 411.865V411.964Z" fill="white"/>
<path d="M1998.15 441.593C2003.17 444.532 2008.36 447.836 2013.81 451.601C2019.23 455.367 2024.55 458.372 2029.77 460.685C2034.99 462.997 2039.98 463.922 2044.8 463.492C2049.59 463.096 2053.88 460.156 2057.62 454.739C2061.78 448.893 2063.13 441.692 2061.68 433.137C2060.23 424.582 2057.09 415.3 2052.3 405.291C2047.51 395.283 2041.56 384.944 2034.46 374.308C2027.36 363.672 2020.06 353.334 2012.56 343.325C2004.63 332.491 1997.62 323.308 1991.58 315.777C1985.53 308.279 1979.79 301.178 1974.37 294.505C1968.95 287.833 1963.73 281.26 1958.71 274.786C1953.69 268.312 1948.27 260.714 1942.42 251.928C1937.83 245.256 1936.28 239.211 1937.73 233.794C1939.18 228.377 1942.75 223.786 1948.37 220.02C1954.02 216.255 1961.22 213.348 1969.97 211.267C1978.73 209.186 1988.11 208.129 1998.15 208.129C2036.97 208.129 2064.72 220.45 2081.4 245.058C2085.17 250.904 2088.27 256.949 2090.78 263.192C2093.3 269.468 2095.81 275.909 2098.28 282.581C2100.79 289.253 2103.5 296.355 2106.41 303.853C2109.32 311.351 2113.08 319.279 2117.68 327.635V327.008C2121.84 316.174 2124.25 306.991 2124.88 299.46C2125.51 291.962 2125.6 285.058 2125.17 278.815C2124.75 272.54 2124.55 266.528 2124.55 260.681C2124.55 254.835 2126.2 247.964 2129.57 240.037C2134.59 228.773 2140.93 220.648 2148.66 215.627C2156.39 210.606 2166.27 208.129 2178.39 208.129C2190.52 208.129 2199.57 211.894 2205.62 219.393C2211.66 226.891 2212.59 235.446 2208.42 245.058C2205.91 251.301 2202.48 257.147 2198.08 262.597C2193.69 268.014 2188.9 273.762 2183.68 279.806C2178.46 285.851 2173.24 292.622 2168.02 300.154C2162.8 307.652 2157.91 316.636 2153.32 327.074C2146.65 344.184 2140.37 359.841 2134.56 374.011C2129.54 386.1 2124.55 398.091 2119.53 409.982C2114.5 421.873 2111.17 429.9 2109.52 434.095C2103.24 447.043 2096.7 459.33 2089.79 471.023C2082.92 482.716 2075.29 492.923 2066.93 501.676C2058.58 510.43 2049.09 517.333 2038.46 522.321C2027.82 527.341 2015.6 529.819 2001.85 529.819C1993.1 529.819 1984.41 528.96 1975.89 527.308C1967.33 525.624 1959.4 523.014 1952.1 519.48C1944.8 515.946 1938.76 511.222 1933.97 505.409C1929.18 499.562 1926.14 492.461 1924.88 484.137C1924.05 476.209 1925.51 468.282 1929.27 460.354C1933.04 452.427 1938.36 446.052 1945.23 441.262C1952.1 436.473 1960.13 433.764 1969.31 433.137C1978.5 432.509 1988.08 435.317 1998.12 441.593H1998.15Z" fill="white"/>
<path d="M978.181 595.088C965.496 585.014 959.054 573.651 958.823 560.967C958.591 548.283 963.315 536.359 972.929 525.195C982.542 514.03 996.318 504.649 1014.29 496.986C1032.23 489.323 1053.01 485.491 1076.63 485.491C1088.45 485.491 1100.81 486.482 1113.69 488.431C1126.61 490.413 1138.63 493.254 1149.8 496.953C1160.97 500.686 1170.58 505.376 1178.67 511.057C1186.77 516.739 1191.89 523.312 1194.1 530.744C1196.71 538.176 1195.19 543.989 1189.51 548.118C1183.83 552.28 1176.49 554.691 1167.51 555.352C1158.52 556.013 1149.24 555.253 1139.63 553.04C1130.01 550.86 1122.35 547.127 1116.67 541.875C1100.48 526.582 1087.03 518.82 1076.3 518.588C1065.56 518.39 1060.21 522.189 1060.21 530.083C1060.21 534.906 1064.57 539.497 1073.32 543.857C1082.08 548.25 1092.58 552.941 1104.84 557.961C1117.1 562.982 1129.88 568.465 1143.23 574.378C1156.57 580.29 1167.84 587.161 1177.02 595.055C1189.28 605.559 1195.49 617.252 1195.72 630.167C1195.95 643.083 1191.23 655.007 1181.61 665.94C1172 676.873 1158.19 686.056 1140.25 693.488C1122.32 700.92 1101.54 704.653 1077.92 704.653C1066.09 704.653 1053.73 703.662 1040.85 701.713C1027.93 699.731 1015.91 696.89 1004.74 693.191C993.576 689.491 983.963 684.768 975.869 679.086C967.775 673.405 962.622 666.832 960.441 659.4C958.261 651.968 960.012 646.187 965.694 642.026C971.376 637.864 978.71 635.452 987.663 634.792C996.615 634.131 1005.93 635.023 1015.54 637.401C1025.16 639.812 1032.59 643.644 1037.84 648.896C1046.14 656.328 1053.8 661.91 1060.8 665.643C1067.81 669.375 1073.82 671.456 1078.84 671.886C1083.86 672.315 1087.79 671.456 1090.67 669.276C1093.51 667.096 1094.93 664.024 1094.93 660.094C1094.93 655.733 1090.67 651.241 1082.14 646.65C1073.62 642.059 1063.21 637.236 1050.96 632.215C1038.7 627.195 1025.92 621.711 1012.57 615.799C999.225 609.886 987.729 603.016 978.115 595.121L978.181 595.088Z" fill="white"/>
<path d="M1342.1 704.653C1324.13 704.653 1307.12 701.812 1291.09 696.131C1275.07 690.449 1261.16 682.687 1249.3 672.844C1237.48 663 1228.13 651.407 1221.36 638.062C1214.55 624.717 1211.18 610.415 1211.18 595.089C1211.18 579.762 1214.58 566.12 1221.36 552.776C1228.16 539.431 1237.48 527.738 1249.3 517.664C1261.13 507.622 1275.07 499.728 1291.09 494.046C1307.12 488.365 1324.1 485.524 1342.1 485.524C1358.78 485.524 1374.44 487.936 1389.14 492.758C1403.84 497.581 1416.66 503.923 1427.63 511.784C1438.6 519.646 1447.25 528.399 1453.63 538.044C1459.97 547.656 1463.18 557.301 1463.18 566.913C1463.18 579.597 1458.65 588.879 1449.63 594.791C1440.61 600.704 1430.37 605.526 1418.91 609.226C1407.45 612.958 1396.21 616.658 1385.21 620.39C1374.21 624.123 1366.71 630.135 1362.75 638.425C1375.96 643.248 1388.62 644.998 1400.74 643.677C1412.86 642.356 1421.32 637.566 1426.18 629.243C1428.36 625.741 1431.89 623.462 1436.75 622.339C1441.6 621.249 1446.23 621.348 1450.62 622.669C1455.02 623.991 1458.32 626.501 1460.53 630.201C1462.71 633.933 1462.28 638.623 1459.25 644.305C1448.71 662.67 1433.05 677.336 1412.2 688.269C1391.36 699.202 1368 704.686 1342.13 704.686L1342.1 704.653ZM1366.68 531.438C1366.68 525.327 1363.57 521.066 1357.4 518.655C1351.22 516.243 1344.45 516.045 1337.15 517.994C1329.85 519.976 1323.11 524.567 1316.9 531.768C1310.72 539.002 1307.61 549.373 1307.61 562.949C1307.61 576.525 1310.32 587.657 1315.77 597.731C1321.19 607.806 1328.23 616.096 1336.82 622.669C1337.67 614.808 1339.72 606.715 1342.99 598.392C1346.23 590.101 1349.6 581.777 1353.04 573.453C1356.5 565.162 1359.64 557.367 1362.45 550.166C1365.26 542.932 1366.68 536.723 1366.68 531.471V531.438Z" fill="white"/>
<path d="M1576.02 704.653C1565.95 704.653 1555.68 703.893 1545.17 702.34C1534.66 700.821 1524.82 697.98 1515.64 693.818C1506.45 689.656 1498.59 683.975 1492.02 676.774C1485.44 669.54 1481.08 660.027 1478.9 648.235C1476.29 632.942 1480.65 619.267 1492.02 607.211C1503.38 595.187 1517.95 585.675 1535.66 578.672C1553.36 571.669 1572.19 567.64 1592.08 566.516C1611.97 565.426 1628.95 568.168 1642.95 574.708C1640.77 558.523 1636.28 545.079 1629.51 534.344C1622.7 523.642 1613.85 518.258 1602.92 518.258C1596.34 518.258 1591.32 520.108 1587.82 523.84C1584.32 527.573 1581.24 531.834 1578.63 536.623C1576.02 541.446 1573.05 546.235 1569.78 551.058C1566.51 555.88 1561.59 559.58 1555.01 562.222C1549.33 563.973 1543.42 564.733 1537.31 564.535C1531.16 564.336 1525.38 563.114 1519.93 560.934C1514.45 558.754 1509.76 555.682 1505.82 551.752C1501.89 547.821 1499.25 543.23 1497.96 537.978C1495.78 527.936 1498.19 519.513 1505.2 512.709C1512.2 505.937 1521.62 500.553 1533.41 496.623C1545.24 492.692 1558.12 489.851 1572.13 488.101C1586.13 486.35 1599.02 485.491 1610.84 485.491C1624.39 485.491 1638.4 487.671 1652.83 492.064C1667.27 496.458 1680.38 502.667 1692.21 510.76C1704.04 518.853 1713.75 528.696 1721.41 540.29C1729.08 551.884 1732.91 564.898 1732.91 579.333V618.706C1732.91 624.387 1734.23 628.879 1736.84 632.149C1739.45 635.419 1742.19 638.491 1745.03 641.332C1747.88 644.173 1750.62 647.145 1753.23 650.184C1755.84 653.256 1757.16 657.418 1757.16 662.637C1757.16 668.781 1755.28 674.33 1751.58 679.384C1747.84 684.404 1743.15 688.798 1737.47 692.497C1731.79 696.23 1725.54 699.169 1718.77 701.349C1711.97 703.529 1705.33 704.619 1698.75 704.619C1689.14 704.619 1680.25 702.538 1672.16 698.377C1664.06 694.215 1657.62 688.434 1652.8 681.002C1644.05 687.575 1633.54 693.158 1621.28 697.749C1609.03 702.34 1593.93 704.653 1575.99 704.653H1576.02ZM1644.94 610.811C1634 605.989 1624.49 603.577 1616.39 603.577C1608.3 603.577 1601.86 605.13 1597.04 608.169C1592.21 611.241 1588.71 615.27 1586.53 620.324C1584.35 625.345 1583.69 630.498 1584.55 635.75C1585.87 643.182 1588.71 648.334 1593.07 651.175C1597.43 654.016 1602.49 655.106 1608.17 654.445C1613.85 653.785 1619.86 651.704 1626.21 648.202C1632.55 644.701 1638.79 640.341 1644.9 635.089V610.811H1644.94Z" fill="white"/>
<path d="M1794.69 653.554C1801.2 653.554 1806.68 655.833 1811.17 660.424C1815.63 665.016 1817.88 670.532 1817.88 677.039C1817.88 683.546 1815.63 689.029 1811.17 693.521C1806.71 697.981 1801.2 700.227 1794.69 700.227C1788.18 700.227 1782.63 697.981 1778.07 693.521C1773.48 689.062 1771.2 683.546 1771.2 677.039C1771.2 670.532 1773.48 664.982 1778.07 660.424C1782.63 655.833 1788.18 653.554 1794.69 653.554Z" fill="#02FFD2"/>
<path d="M1829.94 633.668C1829.94 626.765 1832.08 620.258 1836.38 614.18C1840.67 608.102 1846.45 602.784 1853.72 598.259C1860.99 593.734 1869.58 590.166 1879.46 587.524C1889.33 584.914 1899.9 583.593 1911.1 583.593C1923.03 583.593 1934.23 585.014 1944.73 587.887C1944.01 580.984 1944.9 574.179 1947.41 567.507C1949.92 560.835 1954.74 555.583 1961.91 551.784C1967.86 548.448 1973.71 547.49 1979.45 548.911C1985.17 550.331 1989.7 552.907 1993.03 556.607C1996.37 560.306 1997.99 564.468 1997.86 569.126C1997.72 573.783 1994.82 577.648 1989.1 580.753C1980.74 585.509 1975.56 589.209 1973.54 591.818C1971.53 594.427 1970.73 597.037 1971.23 599.646C1977.9 604.172 1983.09 609.258 1986.79 614.973C1990.49 620.687 1992.34 626.831 1992.34 633.503C1992.34 640.175 1990.19 646.881 1985.9 652.926C1981.6 658.97 1975.82 664.255 1968.55 668.78C1961.28 673.306 1952.7 676.84 1942.82 679.483C1932.91 682.092 1922.37 683.413 1911.17 683.413C1906.38 683.413 1901.85 683.182 1897.59 682.687C1893.3 682.224 1889.14 681.497 1885.07 680.54C1882.2 681.729 1879.95 683.05 1878.27 684.47C1876.58 685.891 1875.99 687.344 1876.48 688.764C1877.44 691.407 1880.91 692.464 1886.86 692.001C1892.8 691.506 1900.04 690.581 1908.49 689.128C1916.95 687.674 1926.13 686.386 1936.05 685.164C1945.92 683.975 1955.31 683.843 1964.13 684.801C1972.95 685.758 1980.64 688.269 1987.18 692.332C1993.76 696.394 1997.99 703.1 1999.87 712.448C2001.52 720.837 1999.51 728.368 1993.79 735.074C1988.08 741.779 1980.45 747.527 1970.9 752.316C1961.35 757.106 1950.91 760.805 1939.61 763.448C1928.28 766.09 1917.74 767.411 1907.97 767.411C1897.72 767.411 1888.05 766.817 1878.99 765.628C1869.94 764.438 1861.88 762.523 1854.84 759.913C1847.81 757.304 1841.96 753.968 1837.34 749.905C1832.68 745.842 1829.54 740.953 1827.85 735.239C1826.67 730.714 1827.26 726.882 1829.64 723.81C1832.02 720.705 1835.35 718.261 1839.65 716.477C1843.94 714.694 1848.83 713.604 1854.32 713.273C1859.8 712.91 1865.05 713.207 1870.04 714.165C1875.06 715.123 1879.46 716.841 1883.29 719.351C1887.09 721.861 1889.5 725.032 1890.46 728.831C1891.88 735.272 1893.63 740.623 1895.64 744.917C1897.66 749.211 1901.66 750.764 1907.64 749.574C1912.89 748.385 1917.84 745.875 1922.47 742.076C1927.13 738.245 1930.99 734.215 1934.1 729.921C1937.2 725.627 1939.05 721.531 1939.65 717.567C1940.24 713.637 1938.99 711.06 1935.88 709.871C1933.24 708.913 1930.53 708.385 1927.65 708.253C1924.78 708.12 1921.34 708.319 1917.28 708.781C1913.22 709.277 1908.33 709.739 1902.61 710.201C1896.9 710.697 1889.73 710.928 1881.14 710.928C1870.4 710.928 1862.08 709.607 1856.1 706.997C1850.15 704.388 1846.26 701.052 1844.47 696.989C1842.69 692.926 1842.85 688.599 1845 683.942C1847.15 679.284 1851.08 674.825 1856.79 670.531C1848.44 666.006 1841.89 660.589 1837.1 654.247C1832.35 647.938 1829.94 641.067 1829.94 633.668ZM1911.14 601.463C1905.65 601.463 1900.9 604.568 1896.83 610.745C1892.77 616.955 1890.75 624.585 1890.75 633.635C1890.75 642.686 1892.77 649.953 1896.83 656.163C1900.9 662.372 1905.65 665.444 1911.14 665.444C1916.62 665.444 1921.68 662.339 1925.61 656.163C1929.54 649.953 1931.52 642.455 1931.52 633.635C1931.52 624.816 1929.54 616.955 1925.61 610.745C1921.68 604.535 1916.85 601.463 1911.14 601.463Z" fill="white"/>
<path d="M2004.13 633.668C2004.13 626.765 2006.28 620.258 2010.57 614.18C2014.87 608.102 2020.65 602.784 2027.92 598.259C2035.19 593.734 2043.78 590.166 2053.65 587.524C2063.53 584.914 2074.1 583.593 2085.3 583.593C2097.23 583.593 2108.43 585.014 2118.93 587.887C2118.2 580.984 2119.1 574.179 2121.61 567.507C2124.12 560.835 2128.94 555.583 2136.11 551.784C2142.06 548.448 2147.9 547.49 2153.65 548.911C2159.37 550.331 2163.89 552.907 2167.23 556.607C2170.57 560.306 2172.18 564.468 2172.05 569.126C2171.92 573.783 2169.01 577.648 2163.3 580.753C2154.94 585.509 2149.75 589.209 2147.74 591.818C2145.72 594.427 2144.93 597.037 2145.43 599.646C2152.1 604.172 2157.29 609.258 2160.99 614.973C2164.69 620.687 2166.54 626.831 2166.54 633.503C2166.54 640.175 2164.39 646.881 2160.09 652.926C2155.8 658.97 2150.02 664.255 2142.75 668.78C2135.48 673.306 2126.89 676.84 2117.02 679.483C2107.1 682.092 2096.57 683.413 2085.37 683.413C2080.58 683.413 2076.05 683.182 2071.79 682.687C2067.49 682.224 2063.33 681.497 2059.27 680.54C2056.39 681.729 2054.15 683.05 2052.46 684.47C2050.78 685.891 2050.18 687.344 2050.68 688.764C2051.64 691.407 2055.11 692.464 2061.05 692.001C2067 691.506 2074.23 690.581 2082.69 689.128C2091.15 687.674 2100.33 686.386 2110.24 685.164C2120.12 683.975 2129.5 683.843 2138.32 684.801C2147.14 685.758 2154.84 688.269 2161.38 692.332C2167.96 696.394 2172.18 703.1 2174.07 712.448C2175.72 720.837 2173.7 728.368 2167.99 735.074C2162.27 741.779 2154.64 747.527 2145.1 752.316C2135.55 757.106 2125.11 760.805 2113.81 763.448C2102.48 766.09 2091.94 767.411 2082.16 767.411C2071.92 767.411 2062.24 766.817 2053.19 765.628C2044.14 764.438 2036.08 762.523 2029.04 759.913C2022.01 757.304 2016.16 753.968 2011.53 749.905C2006.87 745.842 2003.74 740.953 2002.05 735.239C2000.86 730.714 2001.46 726.882 2003.84 723.81C2006.21 720.705 2009.55 718.261 2013.85 716.477C2018.14 714.694 2023.03 713.604 2028.51 713.273C2034 712.91 2039.25 713.207 2044.24 714.165C2049.26 715.123 2053.65 716.841 2057.49 719.351C2061.28 721.861 2063.7 725.032 2064.65 728.831C2066.07 735.272 2067.83 740.623 2069.84 744.917C2071.86 749.211 2075.85 750.764 2081.83 749.574C2087.08 748.385 2092.04 745.875 2096.67 742.076C2101.32 738.245 2105.19 734.215 2108.29 729.921C2111.4 725.627 2113.25 721.531 2113.84 717.567C2114.44 713.637 2113.18 711.06 2110.08 709.871C2107.43 708.913 2104.73 708.385 2101.85 708.253C2098.98 708.12 2095.54 708.319 2091.48 708.781C2087.42 709.277 2082.53 709.739 2076.81 710.201C2071.1 710.697 2063.93 710.928 2055.34 710.928C2044.6 710.928 2036.28 709.607 2030.3 706.997C2024.35 704.388 2020.45 701.052 2018.67 696.989C2016.88 692.926 2017.05 688.599 2019.2 683.942C2021.34 679.284 2025.28 674.825 2030.99 670.531C2022.63 666.006 2016.09 660.589 2011.3 654.247C2006.54 647.938 2004.13 641.067 2004.13 633.668ZM2085.33 601.463C2079.85 601.463 2075.09 604.568 2071.03 610.745C2066.97 616.955 2064.95 624.585 2064.95 633.635C2064.95 642.686 2066.97 649.953 2071.03 656.163C2075.09 662.372 2079.85 665.444 2085.33 665.444C2090.82 665.444 2095.87 662.339 2099.8 656.163C2103.73 649.953 2105.72 642.455 2105.72 633.635C2105.72 624.816 2103.73 616.955 2099.8 610.745C2095.87 604.535 2091.05 601.463 2085.33 601.463Z" fill="white"/>
</svg>
